<?xml version="1.0" encoding="utf-8"?>
<!-- Generator: Adobe Illustrator 27.5.0, SVG Export Plug-In . SVG Version: 6.00 Build 0)  -->
<svg version="1.1" xmlns="http://www.w3.org/2000/svg" xmlns:xlink="http://www.w3.org/1999/xlink" x="0px" y="0px"
	 viewBox="0 0 750 500" style="enable-background:new 0 0 750 500;" xml:space="preserve">
<g id="Cone_00000132803644433901653810000005995922552752193408_">
	<g id="Cone">
		
			<path style="fill:#00826F;stroke:#303030;stroke-width:1.5;stroke-linecap:round;stroke-linejoin:round;stroke-miterlimit:10;" d="
			M332.839,453.068h-75.12c-6.538,0-11.838,5.3-11.838,11.838v2.667h98.797v-2.667C344.677,458.369,339.377,453.068,332.839,453.068
			z"/>
		
			<path style="fill:#00826F;stroke:#303030;stroke-width:1.5;stroke-linecap:round;stroke-linejoin:round;stroke-miterlimit:10;" d="
			M329.253,453.068h-67.948l28.363-86.595c0.756-2.307,2.908-3.867,5.336-3.867h0.55c2.428,0,4.58,1.56,5.336,3.867L329.253,453.068
			z"/>
		
			<polygon style="fill:#FFFFFF;stroke:#303030;stroke-width:1.5;stroke-linecap:round;stroke-linejoin:round;stroke-miterlimit:10;" points="
			267.884,432.98 322.673,432.98 310.851,396.887 279.706,396.887 		"/>
	</g>
</g>
<g id="Tool_Box_00000017505515965495646420000009584116412729392803_">
	<g id="Tool_Box">
		
			<path style="fill:#F55571;stroke:#303030;stroke-width:1.5;stroke-linecap:round;stroke-linejoin:round;stroke-miterlimit:10;" d="
			M482.138,406.8h-74.554v16.995h83.944v-7.605C491.527,411.004,487.323,406.8,482.138,406.8z"/>
		
			<polygon style="fill:#303030;stroke:#303030;stroke-width:1.5;stroke-linecap:round;stroke-linejoin:round;stroke-miterlimit:10;" points="
			413.733,423.796 373.238,423.796 376.199,467.628 413.733,467.628 		"/>
		
			<polygon style="fill:#00826F;stroke:#303030;stroke-width:1.5;stroke-linecap:round;stroke-linejoin:round;stroke-miterlimit:10;" points="
			413.733,423.796 485.161,423.796 482.2,467.628 413.733,467.628 		"/>
		
			<path style="fill:#F55571;stroke:#303030;stroke-width:1.5;stroke-linecap:round;stroke-linejoin:round;stroke-miterlimit:10;" d="
			M410.111,406.8h-32.125c-5.186,0-9.39,4.204-9.39,9.39v7.605h50.905v-7.605C419.501,411.004,415.297,406.8,410.111,406.8z"/>
		
			<line style="fill:#00826F;stroke:#303030;stroke-width:1.5;stroke-linecap:round;stroke-linejoin:round;stroke-miterlimit:10;" x1="368.596" y1="416.19" x2="491.527" y2="416.19"/>
		
			<path style="fill:#F55571;stroke:#303030;stroke-width:1.5;stroke-linecap:round;stroke-linejoin:round;stroke-miterlimit:10;" d="
			M437.267,428.972h-1.382c-1.667,0-3.019-1.352-3.019-3.019v-9.704c0-1.667,1.352-3.019,3.019-3.019h1.382
			c1.667,0,3.019,1.352,3.019,3.019v9.704C440.286,427.621,438.934,428.972,437.267,428.972z"/>
		
			<path style="fill:#F55571;stroke:#303030;stroke-width:1.5;stroke-linecap:round;stroke-linejoin:round;stroke-miterlimit:10;" d="
			M476.083,428.972h-1.382c-1.667,0-3.019-1.352-3.019-3.019v-9.704c0-1.667,1.352-3.019,3.019-3.019h1.382
			c1.667,0,3.019,1.352,3.019,3.019v9.704C479.102,427.621,477.75,428.972,476.083,428.972z"/>
		<path style="fill:none;stroke:#303030;stroke-width:1.5;stroke-linecap:round;stroke-linejoin:round;stroke-miterlimit:10;" d="
			M458.152,406.8h-56.18v-14.83c0-2.066,1.675-3.742,3.742-3.742h48.697c2.066,0,3.742,1.675,3.742,3.742V406.8z"/>
		
			<path style="fill:#F55571;stroke:#303030;stroke-width:1.5;stroke-linecap:round;stroke-linejoin:round;stroke-miterlimit:10;" d="
			M449.837,391.844h-39.549c-0.758,0-1.372-0.614-1.372-1.372v-4.487c0-0.758,0.614-1.372,1.372-1.372h39.549
			c0.758,0,1.372,0.614,1.372,1.372v4.487C451.209,391.23,450.594,391.844,449.837,391.844z"/>
	</g>
</g>
<g id="Gears">
	<g id="Gear">
		
			<path style="fill:#FF95FB;stroke:#303030;stroke-width:1.5;stroke-linecap:round;stroke-linejoin:round;stroke-miterlimit:10;" d="
			M401.202,119.437l-12.516-1.737c-0.679-4.517-1.868-8.852-3.488-12.983l9.976-7.765c0.912-0.715,1.16-1.985,0.584-2.985
			l-4.984-8.633c-0.577-1-1.803-1.423-2.875-0.985l-11.728,4.758c-2.802-3.51-5.984-6.692-9.494-9.495l4.758-11.728
			c0.438-1.073,0.015-2.299-0.985-2.875l-8.633-4.984c-1-0.577-2.27-0.328-2.985,0.584l-7.765,9.969
			c-4.131-1.613-8.473-2.802-12.983-3.481l-1.737-12.516c-0.161-1.146-1.139-1.992-2.292-1.992h-9.969
			c-1.16,0-2.138,0.847-2.292,1.992l-1.744,12.516c-4.51,0.679-8.852,1.868-12.976,3.481l-7.772-9.969
			c-0.708-0.912-1.978-1.16-2.985-0.584l-8.633,4.984c-1,0.576-1.416,1.803-0.985,2.875l4.758,11.728
			c-3.503,2.802-6.692,5.984-9.495,9.495l-11.728-4.758c-1.065-0.438-2.292-0.015-2.868,0.985l-4.984,8.633
			c-0.584,1-0.336,2.27,0.577,2.985l9.976,7.765c-1.62,4.131-2.81,8.466-3.481,12.983l-12.516,1.737c-1.146,0.161-2,1.139-2,2.292
			v9.969c0,1.153,0.854,2.131,2,2.292l12.516,1.744c0.671,4.51,1.861,8.852,3.481,12.976l-9.976,7.772
			c-0.912,0.708-1.16,1.978-0.577,2.978l4.984,8.633c0.577,1,1.803,1.423,2.868,0.992l11.728-4.758
			c2.802,3.503,5.991,6.692,9.495,9.495l-4.758,11.728c-0.431,1.065-0.015,2.292,0.985,2.868l8.633,4.984
			c1.007,0.576,2.277,0.328,2.985-0.577l7.772-9.976c4.123,1.62,8.466,2.81,12.976,3.481l1.744,12.516c0.153,1.146,1.131,2,2.292,2
			h9.969c1.153,0,2.131-0.854,2.292-2l1.737-12.516c4.51-0.671,8.852-1.861,12.983-3.481l7.765,9.976
			c0.715,0.905,1.985,1.153,2.985,0.577l8.633-4.984c1-0.577,1.423-1.803,0.985-2.868l-4.758-11.728
			c3.51-2.802,6.692-5.992,9.494-9.495l11.728,4.758c1.073,0.43,2.299,0.007,2.875-0.992l4.984-8.633
			c0.577-1,0.328-2.27-0.584-2.978l-9.976-7.772c1.62-4.123,2.81-8.466,3.488-12.976l12.516-1.744
			c1.138-0.161,1.992-1.138,1.992-2.292v-9.969C403.194,120.575,402.34,119.597,401.202,119.437z M329.069,166.348
			c-21.894,0-39.635-17.741-39.635-39.635c0-21.886,17.741-39.635,39.635-39.635c21.886,0,39.635,17.749,39.635,39.635
			C368.704,148.606,350.955,166.348,329.069,166.348z"/>
		
			<circle style="fill:#FF95FB;stroke:#303030;stroke-width:1.5;stroke-linecap:round;stroke-linejoin:round;stroke-miterlimit:10;" cx="329.067" cy="126.714" r="20.789"/>
		
			<circle style="fill:none;stroke:#F55571;stroke-width:1.5;stroke-linecap:round;stroke-linejoin:round;stroke-miterlimit:10;" cx="329.067" cy="126.714" r="25.297"/>
	</g>
	<g id="Gear_00000018944852273693785280000017787347945143428756_">
		<path style="fill:none;stroke:#FF95FB;stroke-width:1.5;stroke-linecap:round;stroke-linejoin:round;stroke-miterlimit:10;" d="
			M361.217,261.77l-9.967-1.383c-0.54-3.597-1.488-7.049-2.778-10.339l7.944-6.183c0.727-0.57,0.924-1.581,0.465-2.377l-3.969-6.875
			c-0.459-0.796-1.436-1.133-2.29-0.785l-9.339,3.789c-2.232-2.795-4.765-5.329-7.561-7.561l3.789-9.339
			c0.349-0.854,0.012-1.831-0.785-2.29l-6.875-3.969c-0.796-0.459-1.807-0.262-2.377,0.465l-6.184,7.938
			c-3.289-1.284-6.747-2.232-10.339-2.772l-1.383-9.967c-0.128-0.912-0.907-1.587-1.825-1.587h-7.939
			c-0.924,0-1.703,0.674-1.825,1.587l-1.389,9.967c-3.591,0.54-7.049,1.488-10.333,2.772l-6.189-7.938
			c-0.564-0.727-1.575-0.924-2.377-0.465l-6.875,3.969c-0.796,0.459-1.128,1.436-0.785,2.29l3.789,9.339
			c-2.79,2.232-5.329,4.766-7.561,7.561l-9.339-3.789c-0.849-0.349-1.825-0.012-2.284,0.785l-3.969,6.875
			c-0.465,0.796-0.267,1.807,0.459,2.377l7.944,6.183c-1.29,3.289-2.238,6.741-2.772,10.339l-9.967,1.383
			c-0.912,0.128-1.592,0.907-1.592,1.825v7.939c0,0.918,0.68,1.697,1.592,1.825l9.967,1.389c0.535,3.591,1.482,7.049,2.772,10.333
			l-7.944,6.189c-0.726,0.564-0.924,1.575-0.459,2.371l3.969,6.875c0.459,0.796,1.435,1.133,2.284,0.79l9.339-3.789
			c2.232,2.789,4.771,5.329,7.561,7.561l-3.789,9.339c-0.343,0.848-0.012,1.825,0.785,2.284l6.875,3.969
			c0.802,0.459,1.813,0.261,2.377-0.459l6.189-7.944c3.284,1.29,6.741,2.237,10.333,2.772l1.389,9.967
			c0.122,0.912,0.901,1.592,1.825,1.592h7.939c0.918,0,1.697-0.68,1.825-1.592l1.383-9.967c3.592-0.535,7.049-1.482,10.339-2.772
			l6.184,7.944c0.569,0.721,1.581,0.918,2.377,0.459l6.875-3.969c0.796-0.459,1.133-1.435,0.785-2.284l-3.789-9.339
			c2.795-2.232,5.329-4.771,7.561-7.561l9.339,3.789c0.854,0.343,1.831,0.006,2.29-0.79l3.969-6.875
			c0.459-0.796,0.261-1.807-0.465-2.371l-7.944-6.189c1.29-3.284,2.237-6.741,2.778-10.333l9.967-1.389
			c0.907-0.128,1.586-0.907,1.586-1.825v-7.939C362.804,262.677,362.124,261.898,361.217,261.77z M303.776,299.127
			c-17.435,0-31.562-14.128-31.562-31.563c0-17.429,14.128-31.562,31.562-31.562c17.429,0,31.562,14.134,31.562,31.562
			C335.338,284.999,321.205,299.127,303.776,299.127z"/>
		
			<ellipse transform="matrix(0.1602 -0.9871 0.9871 0.1602 -8.9959 524.5579)" style="fill:none;stroke:#FF95FB;stroke-width:1.5;stroke-linecap:round;stroke-linejoin:round;stroke-miterlimit:10;" cx="303.774" cy="267.566" rx="16.555" ry="16.555"/>
	</g>
</g>
<g id="Character_2">
	<g id="Character_00000139266540723751579440000010256650342055292064_">
		<g id="Legs">
			<g id="Leg_00000038375629566762607850000010843594079383243940_">
				<path style="fill:#FFCCCC;" d="M172.611,191.642h-57.817c-2.7,26.039-2.856,44.46,12.514,82.338
					c-5.31,4.817-10.795,8.396-18.716,18.336c-9.173,11.511-32.56,38.905-47.03,57.446c-4.378,1.893-8.693,4.035-13.034,6.074
					c-2.772,1.302-5.592,2.636-7.837,4.719c-2.245,2.083-3.862,5.074-3.544,8.119c0.25,2.395,1.632,4.505,3.018,6.474
					c9.941,14.123,22.151,26.499,32.602,40.248c2.763,3.635,5.424,7.386,8.683,10.604c1.426,1.408,3.462,3.643,5.418,4.271
					c1.727,0.555,3.898-0.768,4.756-2.248c0.805-1.388,0.926-3.087,0.668-4.671c-0.258-1.583-0.866-3.085-1.451-4.579
					c-1.036-2.646-2.007-5.318-2.888-8.02c-2.506-7.684-4.313-15.658-4.664-23.754c-0.157-3.615-2.259-10.564-1.184-14.054
					c0.974-3.165,3.08-5.227,5.603-7.313c22.109-18.284,56.68-43.53,67.26-51.34c16.566-12.229,27.339-25.336,25.547-51.618
					C178.655,235.373,177.142,218.946,172.611,191.642z"/>
				
					<path style="fill:#00826F;stroke:#303030;stroke-width:1.5;stroke-linecap:round;stroke-linejoin:round;stroke-miterlimit:10;" d="
					M73.181,330.349c2.318,13.096,17.118,27.471,27.414,33.343c0,0,52.471-43.189,68.42-56.69
					c15.949-13.501,19.99-21.132,18.944-38.903c-1.009-17.146-11.903-80.451-11.903-80.451h-61.283c0,0-8.034,24.81-0.374,50.283
					c6.21,20.65,9.682,34.756,9.682,34.756S94.191,300.292,73.181,330.349z"/>
				<g>
					<path style="fill:#303030;" d="M73.181,328.488l-6.779,8.474c0,0,2.966,8.879,10.748,17.715
						c7.782,8.836,17.693,14.958,17.693,14.958l8.315-7.03c0,0-7.824-3.597-17.903-14.817
						C76.893,338.482,73.181,328.488,73.181,328.488z"/>
					
						<path style="fill:none;stroke:#303030;stroke-width:1.5;stroke-linecap:round;stroke-linejoin:round;stroke-miterlimit:10;" d="
						M103.157,362.606c0,0-7.824-3.597-17.903-14.817c-8.361-9.307-12.073-19.301-12.073-19.301"/>
				</g>
				<g>
					<g>
						<path style="fill:#F55571;" d="M92.158,430.546c-1.37,1.995-3.704,4.222-3.704,4.222s-8.919-6.726-15.135-14.196
							c-8.752-10.518-17.903-23.926-21.817-28.538c-6.496-7.654-19.001-21.006-20.325-27.268c0.201-0.303,0.426-0.596,0.684-0.887
							c2.838-3.132,11.7-7.422,16.861-9.326c4.776-1.766,9.755-8.573,12.842-4.79c-3.292,3.132-5.166,7.382-3.253,11.815
							c3.176,7.365,11.236,13.621,16.068,12.049c2.143-3.936,3.675-5.185,8.785-1.708c3.463,2.357,5.309,3.383,4.114,7.806
							c-1.065,3.943-2.884,10.467-1.076,18.919c1.306,6.105,3.475,13.047,5.698,20.008C93.683,424.238,94.22,427.543,92.158,430.546
							z"/>
						<g>
							
								<path style="fill:none;stroke:#303030;stroke-width:1.5;stroke-linecap:round;stroke-linejoin:round;stroke-miterlimit:10;" d="
								M74.592,372.945c-1.305,10.303-1.392,22.312,6.508,36.892"/>
							
								<path style="fill:none;stroke:#303030;stroke-width:1.5;stroke-linecap:round;stroke-linejoin:round;stroke-miterlimit:10;" d="
								M52.253,352.001c-0.994,1.8-1.188,3.965-0.86,5.995c0.327,2.03,1.144,3.95,2.076,5.783c2.492,4.903,5.866,9.356,9.912,13.082
								"/>
							
								<path style="fill:none;stroke:#303030;stroke-width:1.5;stroke-linecap:round;stroke-linejoin:round;stroke-miterlimit:10;" d="
								M42.238,357.445c2.09,8.821,7.773,16.325,13.739,23.151c1.311,1.5,2.645,2.984,3.816,4.595
								c4.441,6.109,3.508,9.958,6.059,17.067c2.583,7.197,2.705,10.335,5.869,14.138"/>
							
								<path style="fill:none;stroke:#303030;stroke-width:1.5;stroke-linecap:round;stroke-linejoin:round;stroke-miterlimit:10;" d="
								M88.546,408.933c-5.624-0.611-11.738,2.704-16.002,6.932"/>
						</g>
						
							<path style="fill:#FFFFFF;stroke:#303030;stroke-width:1.5;stroke-linecap:round;stroke-linejoin:round;stroke-miterlimit:10;" d="
							M86.457,436.098c-1.939,2.076-5.206,2.113-7.185,0.077c-3.022-3.11-8.341-9.312-19.432-22.64l-29.066-34.931
							c-3.914-4.703-6.023-7.55-4.755-9.984c0.93-1.785,3.326-3.148,5.157-3.853c1.325,6.263,13.082,18.377,20.325,27.268
							c3.82,4.69,13.414,16.183,22.165,26.7c4.25,5.107,14.042,15.781,14.042,15.781S87.279,435.217,86.457,436.098z"/>
					</g>
				</g>
			</g>
			<g id="Leg">
				<g id="Leg_00000127723937125962623410000016562433968258565279_">
					<path style="fill:#FFCCCC;" d="M145.491,417.161c0.937-12.041,9.799-92.295,12.579-109.962
						c2.78-17.667-6.805-76.757-6.805-76.757l6.707-34.972H107.59c-7.41,15.644-11.019,29.91-6.105,52.252
						c6.092,27.697,11.863,57.603,11.863,57.603s-3.983,25.769-3.983,48.506c0,23.6,3.88,66.311,4.177,71.656
						c0.082,1.479-4.753,19.825-5.456,24.774c-0.27,1.903-0.495,4.019,0.58,5.593c0.977,1.429,2.757,1.993,4.427,2.316
						c3.232,0.625,6.537,0.7,9.825,0.773c20.56,0.457,41.119,0.913,61.679,1.37c1.425,0.032,2.891,0.057,4.227-0.455
						c1.336-0.512,2.529-1.694,2.64-3.155c0.342-4.504-4.873-7.203-8.091-8.856c-8.079-4.151-16.571-7.706-24.505-12.22
						C149.994,430.577,144.648,427.995,145.491,417.161z"/>
					<g>
						<g>
							<path style="fill:#F55571;" d="M193.759,453.613c0.657,2.329,0.876,5.547,0.876,5.547s-10.875,2.554-20.593,2.554
								c-13.683,0-29.843-1.542-35.892-1.483c-10.039,0.098-28.3,1.17-33.961-1.818c-0.105-0.349-0.186-0.709-0.244-1.093
								c-0.593-4.185,1.778-13.741,3.615-18.926c1.697-4.801,1.1-12.953,5.982-12.907c0.302,4.534,0.92,8.664,5.551,10.03
								c7.693,2.269,17.657,0.075,19.54-4.644c-1.655-4.165-1.635-6.142,4.307-7.845c4.027-1.155,5.996-1.917,8.632,1.831
								c2.35,3.341,6.201,8.912,13.854,12.928c5.528,2.901,12.251,5.674,19.025,8.418
								C189.886,448.406,192.77,450.107,193.759,453.613z"/>
							<g>
								
									<path style="fill:none;stroke:#303030;stroke-width:1.5;stroke-linecap:round;stroke-linejoin:round;stroke-miterlimit:10;" d="
									M138.247,430.272c7.085,7.593,16.261,15.342,32.521,18.595"/>
								
									<path style="fill:none;stroke:#303030;stroke-width:1.5;stroke-linecap:round;stroke-linejoin:round;stroke-miterlimit:10;" d="
									M107.859,434.047c0.748,1.916,2.288,3.449,4.058,4.496c1.77,1.047,3.768,1.647,5.773,2.103
									c5.363,1.22,10.944,1.475,16.396,0.749"/>
								
									<path style="fill:none;stroke:#303030;stroke-width:1.5;stroke-linecap:round;stroke-linejoin:round;stroke-miterlimit:10;" d="
									M105.638,445.228c8.118,4.036,17.521,4.467,26.584,4.247c1.991-0.048,3.986-0.124,5.973,0.006
									c7.537,0.494,9.898,3.673,16.995,6.259c7.184,2.618,9.675,4.531,14.622,4.531"/>
								
									<path style="fill:none;stroke:#303030;stroke-width:1.5;stroke-linecap:round;stroke-linejoin:round;stroke-miterlimit:10;" d="
									M174.835,442.565c-4.067,3.932-5.429,10.753-4.907,16.735"/>
							</g>
							
								<path style="fill:#FFFFFF;stroke:#303030;stroke-width:1.5;stroke-linecap:round;stroke-linejoin:round;stroke-miterlimit:10;" d="
								M194.38,461.546c0.355,2.818-1.705,5.353-4.537,5.572c-4.324,0.334-12.493,0.456-29.833,0.456h-45.443
								c-6.119,0-9.656-0.199-10.716-2.732c-0.777-1.856-0.292-4.57,0.337-6.429c5.661,2.988,22.494,1.698,33.961,1.818
								c6.049,0.063,21.019,0.04,34.701,0.04c6.644,0,21.113-0.7,21.113-0.7S194.229,460.351,194.38,461.546z"/>
						</g>
					</g>
				</g>
				<g id="Pant">
					<path style="fill:#00826F;" d="M161.589,208.98c0.883,14.711-0.43,19.724-1.777,25.688c-1.46,6.518-4.063,4.843-1.234,31.663
						c2.818,26.808,1.618,38.86-0.996,59.636c-3.576,28.37-6.371,76.746-6.371,76.746c-12.991,5.194-30.814,6.269-43.375,1.211
						c0,0-3.225-51.002-1.426-67.954c1.12-10.524,2.84-20.199,4.051-26.989c0.803-4.583,0.758-9.268-0.136-13.828
						c-1.901-9.732-6.609-26.842-10.909-45.412c-2.49-10.728-3.316-20.098-3.316-28.257c0-4.04,0.204-7.774,0.509-11.237
						c0,0,0-0.023,0.011-0.068c0.328-3.746,0.792-7.186,1.256-10.298c15.956,5.138,58.38,7.774,78.998-7.661
						c0.407,3.101,0.792,5.556,1.12,7.944C176.04,202.666,170.393,206.117,161.589,208.98z"/>
					<g>
						<path style="fill:#303030;" d="M105.727,403.187l0.428,9.862c0,0,11.437,4.333,23.209,4.126
							c11.772-0.206,21.583-3.614,21.583-3.614l1.302-11.066c0,0-7.808,3.631-22.885,4.044
							C116.858,406.881,105.727,403.187,105.727,403.187z"/>
						
							<path style="fill:none;stroke:#303030;stroke-width:1.5;stroke-linecap:round;stroke-linejoin:round;stroke-miterlimit:10;" d="
							M152.249,402.494c0,0-7.808,3.631-22.885,4.044c-12.506,0.342-23.637-3.351-23.637-3.351"/>
					</g>
					<g>
						
							<path style="fill:none;stroke:#303030;stroke-width:1.5;stroke-linecap:round;stroke-linejoin:round;stroke-miterlimit:10;" d="
							M107.842,403.925c0,0-3.23-51.002-1.43-67.949c1.118-10.528,2.843-20.208,4.046-27c0.811-4.577,0.764-9.26-0.13-13.82
							c-1.907-9.732-6.846-26.785-10.91-45.411"/>
						
							<path style="fill:none;stroke:#303030;stroke-width:1.5;stroke-linecap:round;stroke-linejoin:round;stroke-miterlimit:10;" d="
							M111.777,202.813c-0.743,6.759-1.778,13.536-1.627,22.733c0.235,14.327,3.17,23.391,6.427,37.117
							c2.42,10.194,4.182,20.452,4.182,30.938c0,15.451-2.781,30.702-3.923,46.084c-1.234,16.62-0.64,49.211-0.143,65.871"/>
						
							<path style="fill:none;stroke:#303030;stroke-width:1.5;stroke-linecap:round;stroke-linejoin:round;stroke-miterlimit:10;" d="
							M126.796,203.985c0,0-0.952,8.949-0.476,19.817c0.253,5.785,0.209,17.264-5.524,19.971c-2.76,1.303-5.526,1.183-8.516,1.183"
							/>
						
							<path style="fill:none;stroke:#303030;stroke-width:1.5;stroke-linecap:round;stroke-linejoin:round;stroke-miterlimit:10;" d="
							M96.979,206.559c15.951,5.137,59.445,8.921,80.058-6.515"/>
						
							<path style="fill:none;stroke:#303030;stroke-width:1.5;stroke-linecap:round;stroke-linejoin:round;stroke-miterlimit:10;" d="
							M157.58,325.964c3.162-23.106,3.821-32.821,0.997-59.637s-0.749-25.277,1.241-31.654c1.683-5.392,3.029-10.202-0.515-34.289"
							/>
					</g>
					
						<path style="fill:#00826F;stroke:#303030;stroke-width:1.5;stroke-linecap:round;stroke-linejoin:round;stroke-miterlimit:10;" d="
						M109.516,299.676l23.458,2.109c0,0-3.18,16.194-4.353,25.05s-4.789,8.621-13.671,7.684c-7.074-0.746-10.701-1.35-10.701-1.35
						C105.803,317.214,108.117,311.021,109.516,299.676z"/>
				</g>
			</g>
		</g>
		<g id="Head_00000006707632541377701150000018370298542019238547_">
			<g>
				<path style="fill:#303030;" d="M103.825,64.773c0.288,11.402,10.405,23.599,22.343,23.298
					c11.938-0.301,21.176-12.987,20.888-24.389c-0.288-11.402-10.199-20.401-22.137-20.099
					C112.981,43.884,103.537,53.372,103.825,64.773z"/>
				<path style="fill:#303030;" d="M109.945,72.711c-1.808,0.224-3.346-0.113-4.864-1.2c-1.679-1.203-2.228-4.22-1.911-5.793
					c-0.72,0.173-1.453,0.334-2.194,0.311c-0.741-0.022-1.499-0.244-2.041-0.749c-0.335-0.312-0.543-0.919-0.17-1.184
					c0.164-0.116,0.381-0.113,0.58-0.14c1.021-0.134,1.746-1.118,1.98-2.12c0.234-1.003,0.099-2.048,0.092-3.078
					c-0.025-4.099,2.514-9.59,6.764-10.786c1.532-0.431,3.163-0.368,4.737-0.134c0.575-2.641,2.173-5.006,4.262-6.721
					c2.089-1.715,4.646-2.807,7.288-3.379c1.789-0.388,3.648-0.545,5.453-0.237c3.355,0.573,6.213,2.676,9.295,4.12
					c3.082,1.444,6.996,2.149,9.7,0.082c0.479-0.366,1.091-0.834,1.612-0.529c0.215,0.126,0.343,0.358,0.446,0.586
					c1.137,2.528-0.065,5.372-2.088,7.065c1.85-0.047,3.657,0.537,4.905,2.251c1.176,1.615,1.601,4.124,1.409,6.125
					c-1.05-0.925-2.374-1.534-3.76-1.731c1.403,1.881,1.781,4.481,0.97,6.684c-0.636,1.727-1.986,3.167-3.642,3.959
					c-0.879,0.42-1.712,0.383-2.634,0.604c-1.202,0.288-2.405,0.572-3.612,0.84c-4.826,1.074-9.694,1.962-14.588,2.663
					c-2.974,0.426-5.959,0.703-8.939,1.07C115.964,71.661,112.971,72.339,109.945,72.711z"/>
			</g>
			<path style="fill:#FFCCCC;" d="M147.205,71.947c0.059-3.208,0.204-5.116-0.161-9.199c-0.537-5.99-4.064-10.64-4.064-10.64
				c-6.444-5.239-17.574-3.658-24.538,2.271c0.682,4.474,1.034,8.481-4.23,9.652c1.769,3.08,2.364,4.536,2.66,7.561
				c0.305,3.117-1.544,2.555-2.812,1.152c-1.695-1.814-4.193-3.315-6.748-3.215c-3.328,0.131-5.405,2.17-5.814,4.586
				c-0.405,2.389,1.591,4.877,3.944,5.739c2.353,0.862,5.41,0.734,7.482-0.734c0,0,0.186,2.877,0.346,5.348
				c0.16,2.471,1.162,4.726,2.96,6.393l-1.605,13.714l-6.438,7.539c5.272,4.203,13.087,6.276,23.611,3.706
				c11.247-2.747,12.841-9.68,12.841-9.68l-6.404-1.571l-1.084-8.284c1.404-0.074,6.831-0.536,9.24-3.184
				c2.41-2.648,1.895-6.014,1.365-11.36C147.471,78.859,147.157,74.589,147.205,71.947z"/>
			<g>
				<g>
					<g>
						<path style="fill:#FFFFFF;" d="M137.619,68.55c0.387-1.433,1.738-2.206,3.265-2.399c1.528-0.193,3.742,0.072,4.244,2.197
							C144.658,70.532,139.826,71.404,137.619,68.55z"/>
						<path style="fill:#303030;" d="M144.058,69.238c-0.417,0.955-1.568,1.38-2.57,0.95c-1.002-0.43-1.476-1.552-1.059-2.507
							c0.417-0.955,1.568-1.38,2.57-0.95C144.002,67.16,144.476,68.283,144.058,69.238z"/>
						<polygon style="fill:#FFFFFF;" points="140.291,67.633 142.244,68.459 140.071,68.698 						"/>
						
							<path style="fill:none;stroke:#303030;stroke-width:1.5;stroke-linecap:round;stroke-linejoin:round;stroke-miterlimit:10;" d="
							M145.357,67.936c-1.027-1.524-2.798-1.821-4.326-1.628c-1.528,0.193-3.049,1.228-3.412,2.241"/>
					</g>
					
						<path style="fill:none;stroke:#303030;stroke-width:1.5;stroke-linecap:round;stroke-linejoin:round;stroke-miterlimit:10;" d="
						M138.156,58.57c2.918-0.336,5.932,0.8,7.507,2.478"/>
				</g>
				<g>
					<g>
						<path style="fill:#FFFFFF;" d="M123.32,69.241c0.393-1.432,1.746-2.199,3.274-2.387c1.528-0.187,3.742,0.087,4.235,2.214
							C130.351,71.249,125.515,72.103,123.32,69.241z"/>
						<path style="fill:#303030;" d="M129.756,69.953c-0.421,0.953-1.573,1.374-2.573,0.94c-1-0.434-1.47-1.558-1.049-2.511
							c0.421-0.953,1.574-1.374,2.574-0.94C129.708,67.876,130.177,69,129.756,69.953z"/>
						<polygon style="fill:#FFFFFF;" points="125.996,68.334 127.945,69.167 125.771,69.397 						"/>
						
							<path style="fill:none;stroke:#303030;stroke-width:1.5;stroke-linecap:round;stroke-linejoin:round;stroke-miterlimit:10;" d="
							M131.06,68.657c-1.021-1.529-2.791-1.831-4.32-1.645c-1.528,0.187-3.054,1.216-3.421,2.228"/>
					</g>
					
						<path style="fill:none;stroke:#303030;stroke-width:1.5;stroke-linecap:round;stroke-linejoin:round;stroke-miterlimit:10;" d="
						M119.251,64.601c0.98-2.503,4.012-4.869,6.88-5.27"/>
				</g>
				<path style="fill:none;stroke:#303030;stroke-width:1.5;stroke-linecap:round;stroke-linejoin:round;stroke-miterlimit:10;" d="
					M134.195,64.469c0.894,4.137,2.693,6.665,3.795,8.707c0.845,1.565,1.07,4.342-2.936,4.722"/>
				<path style="fill:none;stroke:#303030;stroke-width:1.5;stroke-linecap:round;stroke-linejoin:round;stroke-miterlimit:10;" d="
					M135.967,82.418c-3.027,0.982-7.15-0.052-8.778-2.382"/>
				<g>
					
						<path style="fill:none;stroke:#303030;stroke-width:1.5;stroke-linecap:round;stroke-linejoin:round;stroke-miterlimit:10;" d="
						M104.917,73.966c0.44-0.554,1.839-1.423,3.358-1.14c1.518,0.283,2.843,1.353,3.386,2.735"/>
					
						<path style="fill:none;stroke:#303030;stroke-width:1.5;stroke-linecap:round;stroke-linejoin:round;stroke-miterlimit:10;" d="
						M107.388,75.444c0.394-0.679,1.93-1.822,3.51-1.121"/>
				</g>
				<path style="fill:#303030;" d="M137.152,96.285c-5.331-0.143-11.343-1.308-14.929-3.441c0.98,2.267,5.336,5.867,15.397,7.196
					L137.152,96.285z"/>
			</g>
		</g>
		<g id="Arm_00000169538161577856048270000009148179257839725696_">
			<path style="fill:#FFCCCC;" d="M264.135,139.167c-2.653,1.303-6.652,2.603-6.652,2.603c2.598-1.238,6.82-4.188,8.966-5.947
				c2.789-2.286,6.042-6.156,5.223-8.275c-0.429-1.438-1.566-1.921-2.894-1.429c0.56-1.161,1.569-3.081-0.693-3.804
				c-1.977-0.632-5.305,2.399-7.943,4.464c-1.55,1.214-3.827,2.71-6.191,4.52c2.711-2.742,4.604-4.994,6.595-8.186
				c1.263-2.024,2.61-4.132,0.817-5.18c-1.793-1.048-3.947,1.279-5.336,2.913c-1.389,1.634-4.842,5.353-6.376,6.497
				c-1.666,1.243-3.978,3.059-4.416,0.784c-0.438-2.275,2.511-5.513,2.049-8.071c-0.299-1.651-1.709-3.169-3.25-1.771
				c-1.541,1.397-2.552,3.879-3.75,5.786c-1.544,2.459-2.965,5.365-4.053,8.083c-1.71,4.273-4.158,4.364-11.265,5.47
				c-5.862,0.912-28.724,1.673-28.724,1.673l-31.474-24.764l-15.678,21.179c10.428,8.273,25.992,18.518,32.108,22.306
				c7.342,4.548,11.141,7.107,23.378,5.249c11.295-1.715,27.868-6.931,32.301-8.204c4.432-1.273,10.897-3.131,15.03-4.464
				c4.133-1.333,7.212-2.441,10.387-4.169c2.763-1.505,8.693-4.609,7.411-7.518C268.955,137.2,267.122,137.7,264.135,139.167z"/>
			<path style="fill:none;stroke:#303030;stroke-width:1.5;stroke-linecap:round;stroke-linejoin:round;stroke-miterlimit:10;" d="
				M256.122,136.024c4.718-2.66,8.845-5.97,12.617-9.849"/>
			<path style="fill:none;stroke:#303030;stroke-width:1.5;stroke-linecap:round;stroke-linejoin:round;stroke-miterlimit:10;" d="
				M247.892,136.392c-1.837-0.317-3.762,0.327-5.223,1.486c-1.461,1.159-2.491,2.791-3.186,4.521"/>
			<path style="fill:#00826F;" d="M158.778,107.24c8.442,1.163,11.344,2.646,16.545,8.607c5.45,6.248,12.362,13.961,12.362,13.961
				c8.55,5.674-3.727,24.59-8.573,28.293l-28.922-18.267L158.778,107.24z"/>
			<g>
				
					<path style="fill:#00826F;stroke:#303030;stroke-width:1.5;stroke-linecap:round;stroke-linejoin:round;stroke-miterlimit:10;" d="
					M170.295,155.07c-0.962,3.293,2.257,4.612,6.007,5.142c3.4,0.481,4.01,2.655,7.436,3.141c2.557,0.363,9.112-3.952,13.439-12.059
					c4.327-8.106,3.738-12.967,3.021-14.386c-0.717-1.418-2.468-2.174-5.648-4.435c-3.18-2.262-3.824-8.243-8.41-4.665l1.546,2.001
					c0,0,2.625,3.685-3.345,13.812c-5.97,10.128-11.692,12.788-11.692,12.788L170.295,155.07z"/>
				<path style="fill:none;stroke:#303030;stroke-width:1.5;stroke-linecap:round;stroke-linejoin:round;stroke-miterlimit:10;" d="
					M193.712,143.252c-2.309,7.998-8.25,14.713-15.673,17.422"/>
				<path style="fill:none;stroke:#303030;stroke-width:1.5;stroke-linecap:round;stroke-linejoin:round;stroke-miterlimit:10;" d="
					M187.685,129.808c0,0,2.625,3.685-3.345,13.812c-5.97,10.128-11.692,12.788-11.692,12.788"/>
			</g>
		</g>
		<g id="Chest_00000090270041254708147700000004346724931516489624_">
			<g id="Chest_00000116225532816129630470000009419300970490173869_">
				
					<path id="Chest_00000080901955120131877590000015002395646163538575_" style="fill:#FFFFFF;stroke:#303030;stroke-width:1.5;stroke-linecap:round;stroke-linejoin:round;stroke-miterlimit:10;" d="
					M112.28,104.57c13.682,8.582,28.676,6.652,29.396,0l16.308,5.316c0,0,9.535,10.55,11.48,25.143
					c1.946,14.594,3.892,55.456,3.892,55.456s-6.494,9-29.807,9.559c-23.314,0.559-42.103-3.722-42.103-3.722
					s3.664-10.313,2.373-16.15c-1.291-5.837-5.572-17.902-10.048-32.495c-4.475-14.594-6.227-25.069,0-30.728
					C99.998,111.289,112.28,104.57,112.28,104.57z"/>
				<path style="fill:#00826F;" d="M176.877,192.221c-20.618,15.435-63.042,12.799-78.998,7.661c0.057-0.373,0.113-0.747,0.17-1.109
					c0.419-3.214,0.894-6.654,1.369-9.709c1.381-8.906-3.949-14.281-9.687-33.62c-4.583-15.447-9.234-35.001,4.391-42.594
					c9.574-5.341,16.035-7.446,16.035-7.446c7.729,9.132,23.232,14.564,31.685,16.171c2.908-5.421,3.915-9.789,1.03-17.008
					c0,0,9.641,1.844,15.911,2.671c5.352,3.259,12.368,11.429,13.862,24.681c1.686,14.915,1.471,18.706,2.501,39.686
					C175.621,181.324,176.266,187.514,176.877,192.221z"/>
				<path style="fill:none;stroke:#303030;stroke-width:1.5;stroke-linecap:round;stroke-linejoin:round;stroke-miterlimit:10;" d="
					M159.303,200.385c-3.457-23.496-3.787-65.488-17.464-78.812"/>
				<path style="fill:none;stroke:#303030;stroke-width:1.5;stroke-linecap:round;stroke-linejoin:round;stroke-miterlimit:10;" d="
					M98.077,199.96c15.951,5.137,58.005,7.829,78.618-7.608"/>
				<path style="fill:none;stroke:#303030;stroke-width:1.5;stroke-linecap:round;stroke-linejoin:round;stroke-miterlimit:10;" d="
					M177.999,200.166c-0.822-5.995-2.06-12.435-2.854-28.566c-1.033-20.977-0.817-24.769-2.497-39.68"/>
			</g>
			<g id="Neck">
				<g>
					
						<path style="fill:#00826F;stroke:#303030;stroke-width:1.5;stroke-linecap:round;stroke-linejoin:round;stroke-miterlimit:10;" d="
						M113.434,101.634c4.566,7.793,21.591,17.752,28.405,19.938c-11.496-0.273-11.895-2.707-17.502-1.997
						c-3.002,0.38-6.158,2.851-6.158,2.851s-12.53-8.54-14.36-14.723c1.993-1.228,5.837-3.134,5.837-3.134
						S109.244,101.055,113.434,101.634z"/>
					
						<path style="fill:none;stroke:#303030;stroke-width:1.5;stroke-linecap:round;stroke-linejoin:round;stroke-miterlimit:10;" d="
						M109.656,104.57c1.242,4.372,8.164,9.372,11.256,10.631"/>
				</g>
				
					<path style="fill:#00826F;stroke:#303030;stroke-width:1.5;stroke-linecap:round;stroke-linejoin:round;stroke-miterlimit:10;" d="
					M138.473,100.872c0.207,1.259,0.597,3.431,0.597,3.431c1.504,2.937,4.622,8.242,2.769,17.27
					c5.224-3.961,5.137-9.435,6.698-10.35c1.56-0.915,5.307,0,5.307,0l-4.761-5.819l-4.442-1.295L138.473,100.872z"/>
			</g>
		</g>
		<g id="Wtench">
			
				<path style="fill:#00826F;stroke:#303030;stroke-width:1.5;stroke-linecap:round;stroke-linejoin:round;stroke-miterlimit:10;" d="
				M288.819,154.149l-13.3,5.421c-2.026,0.825-4.33-0.145-5.148-2.162l-7.947-19.461c-0.818-2.017,0.145-4.33,2.162-5.148
				l13.309-5.429c2.026-0.825,4.33,0.145,5.148,2.162l7.947,19.461C291.808,151.01,290.838,153.314,288.819,154.149z
				 M94.641,280.536c-3.266-4.101-2.597-10.076,1.513-13.349c4.101-3.266,10.075-2.58,13.34,1.521
				c3.266,4.101,2.597,10.076-1.504,13.342C103.881,285.323,97.907,284.637,94.641,280.536z M350.562,99.686
				c-7.348-3.477-30.333-13.94-48.186-17.583c-21.537-4.398-38.23,8.89-46.281,23.648c-8.031,14.737-13.454,38.83-42.276,59.973
				l-123.331,90.71c-9.811,7.213-11.643,21.133-4.067,30.644c7.586,9.532,21.547,10.846,30.778,2.908l116.148-100.004
				c21.319-18.204,41.014-13.63,55.161-11.498c12.036,1.832,22.365,0.404,28.284-2.018c1.087-0.445,1.625-1.676,1.169-2.773
				l-22.497-55.217c-0.466-1.17,0-2.505,1.087-3.115l16.362-9.221c0.362-0.207,0.776-0.31,1.19-0.321l34.709,1.097
				c1.261,0.04,2.398-0.758,2.788-1.958l0.534-1.64C352.591,101.88,351.928,100.327,350.562,99.686z"/>
			<g>
				
					<rect x="262.247" y="137.723" transform="matrix(0.3779 0.9259 -0.9259 0.3779 304.9742 -166.933)" style="fill:#303030;stroke:#303030;stroke-width:1.5;stroke-linecap:round;stroke-linejoin:round;stroke-miterlimit:10;" width="28.917" height="11.495"/>
				<g>
					
						<path style="fill:#00826F;stroke:#303030;stroke-width:1.5;stroke-linecap:round;stroke-linejoin:round;stroke-miterlimit:10;" d="
						M272.704,156.258L272.704,156.258c-0.347-0.851,0.061-1.822,0.912-2.169l12.726-5.194c0.851-0.347,1.822,0.061,2.169,0.912v0
						c0.347,0.851-0.061,1.822-0.912,2.169l-12.726,5.194C274.022,157.517,273.051,157.108,272.704,156.258z"/>
					
						<path style="fill:#00826F;stroke:#303030;stroke-width:1.5;stroke-linecap:round;stroke-linejoin:round;stroke-miterlimit:10;" d="
						M270.102,149.884L270.102,149.884c-0.347-0.851,0.061-1.822,0.912-2.169l12.726-5.194c0.851-0.347,1.822,0.061,2.169,0.912l0,0
						c0.347,0.851-0.061,1.822-0.912,2.169l-12.726,5.194C271.421,151.143,270.45,150.734,270.102,149.884z"/>
					
						<path style="fill:#00826F;stroke:#303030;stroke-width:1.5;stroke-linecap:round;stroke-linejoin:round;stroke-miterlimit:10;" d="
						M267.501,143.51L267.501,143.51c-0.347-0.851,0.061-1.822,0.912-2.169l12.726-5.194c0.851-0.347,1.822,0.061,2.169,0.912l0,0
						c0.347,0.851-0.061,1.822-0.912,2.169l-12.726,5.194C268.819,144.769,267.848,144.361,267.501,143.51z"/>
					
						<path style="fill:#00826F;stroke:#303030;stroke-width:1.5;stroke-linecap:round;stroke-linejoin:round;stroke-miterlimit:10;" d="
						M264.899,137.136L264.899,137.136c-0.347-0.851,0.061-1.822,0.912-2.169l12.726-5.194c0.851-0.347,1.822,0.061,2.169,0.912l0,0
						c0.347,0.851-0.061,1.822-0.912,2.169l-12.726,5.194C266.218,138.395,265.247,137.987,264.899,137.136z"/>
				</g>
			</g>
			<g>
				
					<path style="fill:#00826F;stroke:#303030;stroke-width:1.5;stroke-linecap:round;stroke-linejoin:round;stroke-miterlimit:10;" d="
					M318.044,173.902c8.469-3.434,25.349-15.568,34.52-31.831c0.646-1.146,0.254-2.598-0.895-3.238l-0.898-0.48
					c-0.669-0.358-1.476-0.305-2.094,0.135c-9.47,6.734-23.038,14.307-39.322,14.094L318.044,173.902z"/>
				
					<path style="fill:#303030;stroke:#303030;stroke-width:1.5;stroke-linecap:round;stroke-linejoin:round;stroke-miterlimit:10;" d="
					M324.069,170.793l-10.317-18.314c-1.437,0.077-2.895,0.123-4.398,0.103l8.69,21.32
					C319.753,173.21,321.808,172.157,324.069,170.793z"/>
			</g>
			
				<path style="fill:#F55571;stroke:#303030;stroke-width:1.5;stroke-linecap:round;stroke-linejoin:round;stroke-miterlimit:10;" d="
				M90.487,256.433c-9.807,7.219-11.646,21.13-4.065,30.649c7.588,9.528,21.551,10.841,30.781,2.899l108.526-93.437l-19.878-24.961
				L90.487,256.433z M109.495,268.708c3.266,4.101,2.597,10.076-1.504,13.342c-4.11,3.273-10.084,2.587-13.349-1.514
				c-3.266-4.101-2.597-10.076,1.513-13.349C100.255,263.921,106.229,264.607,109.495,268.708z"/>
		</g>
		<g id="Arm_00000104697346679529068100000014917113179517420167_">
			<path style="fill:#FFCCCC;" d="M201.178,205.254c-0.811-2.19-5.813-2.185-8.692-2.185c-1.14,0-3.163-0.22-5.088-0.52
				c2.527,0.12,5.801,0.007,7.752-0.501c2.271-0.591,4.659-1.185,4.088-3.146c-0.571-1.961-3.684-1.756-5.782-1.529
				c-2.457,0.266-5.128,0.384-7.717-0.212c-2.589-0.597-4.121-1.807-3.888-2.864c0.233-1.057,1.03-1.32,2.423-1.808
				c1.909-0.669,2.501-0.797,3.841-1.556c1.34-0.759,2.102-1.893,2.209-3.017c0.319-3.332-2.868-1.982-4.701-1.598
				c-2.882,0.603-5.252,0.872-9.223,2.04c-1.428,0.42-3.294,1.401-5.778,1.758c-1.099,0.158-4.224,0.258-6.326-0.791
				c-3.815-1.903-13.933-7.5-18.159-10.131c-3.822-2.38-7.64-4.766-11.451-7.162c-8.348-16.594-13.953-27.393-19.048-37.42
				c-5.094-10.027-10.963-14.515-17.889-13.68l-3.43,35.24c0,0,7.021,12.511,14.602,25.066c3.168,5.246,5.407,10.184,16.922,15.139
				c4.996,2.15,32.518,10.483,36.613,12.344c6.566,2.984,4.391,2.334,8.245,4.178c3.854,1.844,6.801,3.135,10.238,4.049
				c2.991,0.795,9.529,2.654,10.378-0.355c0.392-1.392-1.319-2.523-4.445-3.495c-0.513-0.16-1.053-0.336-1.591-0.518
				c2.322,0.495,4.844,0.774,6.319,0.772c3.729-0.005,7.861-0.109,8.574-2.226c0.561-1.664,0.036-2.177-1.075-2.685
				C200.129,208.188,201.989,207.445,201.178,205.254z"/>
			<path style="fill:#00826F;" d="M91.343,153.692l10.828,20.129c0,0,6.571,0.519,15.399-4.653
				c8.827-5.172,11.248-10.44,11.248-10.44s-7.953-16.671-13.425-27.402c-4.721-9.259-9.886-18.356-21.266-18.481
				C78.522,121.25,82.459,137.176,91.343,153.692z"/>
			<path style="fill:none;stroke:#303030;stroke-width:1.5;stroke-linecap:round;stroke-linejoin:round;stroke-miterlimit:10;" d="
				M128.818,158.728c0,0-7.953-16.671-13.425-27.402"/>
			<path style="fill:none;stroke:#303030;stroke-width:1.5;stroke-linecap:round;stroke-linejoin:round;stroke-miterlimit:10;" d="
				M94.127,112.845c-15.604,8.405-11.668,24.331-2.783,40.847l10.828,20.129"/>
			<g>
				
					<path style="fill:#00826F;stroke:#303030;stroke-width:1.5;stroke-linecap:round;stroke-linejoin:round;stroke-miterlimit:10;" d="
					M100.233,170.218c-2.564,2.28-0.537,5.106,2.359,7.547c2.626,2.213,1.988,4.379,4.632,6.61c1.974,1.665,9.82,1.49,17.791-3.08
					c7.971-4.57,10.054-9.002,10.2-10.585c0.146-1.583-0.937-3.153-2.43-6.758c-1.493-3.605-1.593-10.873-5.797-9.039l1.395,3.137
					c0,0,0.268,4.516-10.17,9.927c-10.438,5.41-16.699,4.626-16.699,4.626L100.233,170.218z"/>
				<path style="fill:none;stroke:#303030;stroke-width:1.5;stroke-linecap:round;stroke-linejoin:round;stroke-miterlimit:10;" d="
					M126.351,172.642c-6.204,5.55-14.805,8.085-22.532,6.438"/>
				<path style="fill:none;stroke:#303030;stroke-width:1.5;stroke-linecap:round;stroke-linejoin:round;stroke-miterlimit:10;" d="
					M128.384,158.05c0,0,0.268,4.516-10.17,9.927c-10.438,5.41-16.699,4.626-16.699,4.626"/>
			</g>
			<path style="fill:none;stroke:#303030;stroke-width:1.5;stroke-linecap:round;stroke-linejoin:round;stroke-miterlimit:10;" d="
				M182.852,207.302c5.169,1.292,10.93,1.357,16.248,1.138"/>
			<path style="fill:none;stroke:#303030;stroke-width:1.5;stroke-linecap:round;stroke-linejoin:round;stroke-miterlimit:10;" d="
				M192.606,202.508c3.394,0.433,7.79,0.594,8.572,2.746c0.744,2.048-0.339,2.927-2.079,3.186c1.821,1.208,1.33,3.251-0.252,4.246
				c-1.965,1.236-5.588,1.365-10.166,0.964c-2.812-0.247-5.252-0.907-7.162-1.36"/>
			<path style="fill:none;stroke:#303030;stroke-width:1.5;stroke-linecap:round;stroke-linejoin:round;stroke-miterlimit:10;" d="
				M183.459,202.142c2.792,0.441,6.362,0.655,10.882,0.081s5.367-1.408,5.424-2.722c0.066-1.51-1.337-2.786-6.346-2.41"/>
		</g>
	</g>
</g>
<g id="Character_1">
	<g id="Character_00000111182475346452454350000001103456123923367333_">
		<g id="Legs_00000006707430946088646140000004486268567895336369_">
			<g id="Leg_00000107561041736168180740000011732122176163956629_">
				<path style="fill:#FFC4B0;" d="M574.913,194.121h57.298c2.676,25.805,2.83,44.06-12.402,81.598
					c5.262,4.774,10.698,8.32,18.548,18.172c9.09,11.408,32.267,38.555,46.607,56.93c4.339,1.876,8.615,3.998,12.917,6.019
					c2.747,1.29,5.542,2.612,7.767,4.676c2.224,2.064,3.827,5.028,3.512,8.046c-0.248,2.374-1.617,4.464-2.991,6.416
					c-9.851,13.996-21.952,26.26-32.309,39.886c-2.738,3.602-5.375,7.32-8.605,10.509c-1.413,1.395-3.431,3.61-5.369,4.233
					c-1.711,0.55-3.863-0.761-4.714-2.228c-0.798-1.376-0.918-3.06-0.662-4.629c0.255-1.569,0.858-3.057,1.438-4.538
					c1.027-2.622,1.989-5.27,2.862-7.948c2.483-7.615,4.274-15.518,4.622-23.54c0.155-3.582,2.238-10.469,1.173-13.927
					c-0.966-3.136-3.052-5.18-5.552-7.247c-21.911-18.119-56.17-43.139-66.655-50.879c-16.417-12.119-27.093-25.109-25.318-51.154
					C568.923,237.46,570.422,221.18,574.913,194.121z"/>
				<path style="fill:#00826F;" d="M673.449,331.582c-2.297,12.978-16.964,27.224-27.168,33.043c0,0-52-42.801-67.805-56.18
					c-15.806-13.38-19.81-20.942-18.774-38.554c1-16.992,11.796-79.728,11.796-79.728h60.732c0,0,7.962,24.587,0.37,49.831
					c-6.154,20.464-9.595,34.444-9.595,34.444S652.629,301.795,673.449,331.582z"/>
				<g>
					<path style="fill:#303030;" d="M673.449,329.738l6.718,8.398c0,0-2.939,8.8-10.651,17.556
						c-7.712,8.757-17.534,14.823-17.534,14.823l-8.24-6.966c0,0,7.753-3.565,17.743-14.684
						C669.77,339.642,673.449,329.738,673.449,329.738z"/>
					
						<path style="fill:none;stroke:#303030;stroke-width:1.5;stroke-linecap:round;stroke-linejoin:round;stroke-miterlimit:10;" d="
						M643.742,363.549c0,0,7.753-3.565,17.743-14.684c8.285-9.223,11.964-19.127,11.964-19.127"/>
				</g>
				<g>
					<g>
						<path style="fill:#F55571;" d="M654.643,430.879c1.358,1.977,3.67,4.184,3.67,4.184s8.839-6.665,14.999-14.069
							c8.673-10.423,17.742-23.711,21.621-28.281c6.438-7.586,18.83-20.817,20.142-27.023c-0.199-0.301-0.422-0.591-0.678-0.879
							c-2.812-3.104-11.595-7.355-16.709-9.243c-4.733-1.75-9.667-8.496-12.726-4.747c3.262,3.104,5.12,7.315,3.224,11.709
							c-3.148,7.298-11.135,13.498-15.924,11.941c-2.124-3.9-3.642-5.139-8.706-1.692c-3.432,2.336-5.261,3.352-4.077,7.736
							c1.056,3.908,2.858,10.373,1.066,18.749c-1.294,6.05-3.443,12.93-5.647,19.828C653.132,424.628,652.6,427.903,654.643,430.879
							z"/>
						<g>
							
								<path style="fill:none;stroke:#303030;stroke-width:1.5;stroke-linecap:round;stroke-linejoin:round;stroke-miterlimit:10;" d="
								M672.051,373.796c1.294,10.21,1.38,22.112-6.45,36.561"/>
							
								<path style="fill:none;stroke:#303030;stroke-width:1.5;stroke-linecap:round;stroke-linejoin:round;stroke-miterlimit:10;" d="
								M694.189,353.04c0.985,1.784,1.177,3.929,0.853,5.941c-0.324,2.012-1.134,3.914-2.057,5.731
								c-2.47,4.859-5.813,9.272-9.823,12.965"/>
							
								<path style="fill:none;stroke:#303030;stroke-width:1.5;stroke-linecap:round;stroke-linejoin:round;stroke-miterlimit:10;" d="
								M704.114,358.435c-2.071,8.742-7.703,16.179-13.615,22.943c-1.299,1.486-2.621,2.957-3.782,4.554
								c-4.401,6.055-3.477,9.868-6.005,16.914c-2.559,7.132-2.681,10.242-5.816,14.011"/>
							
								<path style="fill:none;stroke:#303030;stroke-width:1.5;stroke-linecap:round;stroke-linejoin:round;stroke-miterlimit:10;" d="
								M658.223,409.46c5.573-0.606,11.633,2.68,15.858,6.87"/>
						</g>
						
							<path style="fill:#FFFFFF;stroke:#303030;stroke-width:1.5;stroke-linecap:round;stroke-linejoin:round;stroke-miterlimit:10;" d="
							M660.293,436.38c1.921,2.057,5.159,2.094,7.12,0.076c2.995-3.082,8.266-9.228,19.257-22.437l28.805-34.617
							c3.879-4.661,5.969-7.483,4.712-9.895c-0.922-1.769-3.297-3.119-5.111-3.818c-1.313,6.206-12.965,18.212-20.142,27.023
							c-3.786,4.648-13.293,16.037-21.966,26.46c-4.212,5.061-13.916,15.639-13.916,15.639S659.478,435.508,660.293,436.38z"/>
					</g>
				</g>
			</g>
			<g id="Leg_00000006682716479891359490000011856450695201903507_">
				<path style="fill:#FFC4B0;" d="M599.781,417.614c-0.929-11.932-9.711-91.466-12.466-108.974
					c-2.755-17.508,6.744-76.067,6.744-76.067l-6.646-34.658h49.929c7.343,15.504,10.92,29.641,6.05,51.783
					c-6.037,27.448-11.756,57.086-11.756,57.086s3.947,25.537,3.947,48.07c0,23.388-3.845,65.715-4.14,71.012
					c-0.081,1.466,4.71,19.647,5.407,24.551c0.268,1.886,0.491,3.983-0.575,5.543c-0.968,1.416-2.732,1.975-4.387,2.295
					c-3.203,0.619-6.478,0.694-9.737,0.766c-20.375,0.453-40.75,0.905-61.125,1.358c-1.413,0.031-2.865,0.056-4.189-0.451
					c-1.324-0.507-2.507-1.679-2.617-3.127c-0.339-4.464,4.829-7.139,8.018-8.777c8.006-4.113,16.423-7.637,24.285-12.111
					C595.319,430.91,600.617,428.35,599.781,417.614z"/>
				<g>
					<path style="fill:#00826F;" d="M589.34,191.569c-0.276,1.848-1.278,10.592-1.278,10.592
						c-2.078,21.912-4.054,27.594-2.479,34.605c1.451,6.459,4.029,4.794,1.23,31.369c-2.8,26.575-1.607,38.512,0.987,59.101
						c3.543,28.116,6.309,76.058,6.309,76.058c12.87,5.146,30.534,6.212,42.982,1.203c0,0,3.201-50.543,1.417-67.339
						c-1.108-10.433-2.817-20.026-4.009-26.757c-0.803-4.536-0.757-9.177,0.128-13.696c1.89-9.644,6.551-26.6,10.812-45.003
						c6.752-29.162,0.186-45.519-4.069-58.94L589.34,191.569z"/>
					
						<path style="fill:none;stroke:#303030;stroke-width:1.5;stroke-linecap:round;stroke-linejoin:round;stroke-miterlimit:10;" d="
						M637.091,404.497c0,0,3.201-50.543,1.417-67.339c-1.108-10.433-2.817-20.026-4.009-26.757
						c-0.803-4.536-0.757-9.177,0.128-13.696c1.89-9.644,6.785-26.544,10.812-45.003"/>
					
						<path style="fill:none;stroke:#303030;stroke-width:1.5;stroke-linecap:round;stroke-linejoin:round;stroke-miterlimit:10;" d="
						M586.663,204.855c-3.847,23.985-2.655,24.9-1.079,31.911c1.451,6.459,4.029,4.794,1.23,31.369
						c-2.8,26.575-2.146,36.203,0.987,59.101"/>
				</g>
				<path style="fill:none;stroke:#303030;stroke-width:1.5;stroke-linecap:round;stroke-linejoin:round;stroke-miterlimit:10;" d="
					M627.078,192.808c3.648,10.014,5.961,20.543,6.87,31.194c1.207,14.148-2.284,26.9-5.513,40.502
					c-2.398,10.102-4.144,20.269-4.144,30.66c0,15.312,2.756,30.426,3.888,45.67c1.223,16.471,0.634,48.768,0.142,65.279"/>
				<g>
					<path style="fill:#303030;" d="M639.187,403.765l-0.424,9.773c0,0-11.334,4.294-23,4.089
						c-11.667-0.205-21.389-3.582-21.389-3.582l-1.29-10.967c0,0,7.738,3.599,22.679,4.008
						C628.156,407.426,639.187,403.765,639.187,403.765z"/>
					
						<path style="fill:none;stroke:#303030;stroke-width:1.5;stroke-linecap:round;stroke-linejoin:round;stroke-miterlimit:10;" d="
						M593.084,403.079c0,0,7.738,3.599,22.679,4.008c12.393,0.339,23.424-3.321,23.424-3.321"/>
				</g>
				<path style="fill:none;stroke:#303030;stroke-width:1.5;stroke-linecap:round;stroke-linejoin:round;stroke-miterlimit:10;" d="
					M615.43,196.627c0,0,1.656,11.296,2.79,16.799c1.158,5.62,1.587,14.37,7.269,17.053c2.735,1.291,5.477,1.172,8.44,1.172"/>
				<g>
					<g>
						<path style="fill:#F55571;" d="M551.947,453.738c-0.651,2.309-0.868,5.497-0.868,5.497s10.777,2.531,20.408,2.531
							c13.56,0,29.575-1.528,35.569-1.47c9.949,0.097,28.046,1.159,33.656-1.801c0.104-0.346,0.184-0.703,0.242-1.083
							c0.588-4.147-1.762-13.618-3.583-18.756c-1.682-4.758-1.09-12.837-5.928-12.791c-0.299,4.493-0.911,8.586-5.501,9.94
							c-7.624,2.249-17.498,0.074-19.364-4.603c1.64-4.127,1.621-6.087-4.268-7.775c-3.991-1.144-5.942-1.9-8.554,1.814
							c-2.329,3.311-6.146,8.832-13.73,12.812c-5.479,2.875-12.141,5.623-18.854,8.342
							C555.785,448.578,552.927,450.264,551.947,453.738z"/>
						<g>
							
								<path style="fill:none;stroke:#303030;stroke-width:1.5;stroke-linecap:round;stroke-linejoin:round;stroke-miterlimit:10;" d="
								M606.96,430.607c-7.021,7.525-16.115,15.204-32.229,18.428"/>
							
								<path style="fill:none;stroke:#303030;stroke-width:1.5;stroke-linecap:round;stroke-linejoin:round;stroke-miterlimit:10;" d="
								M637.075,434.349c-0.741,1.898-2.267,3.418-4.021,4.455c-1.754,1.038-3.734,1.632-5.721,2.084
								c-5.315,1.21-10.846,1.462-16.249,0.742"/>
							
								<path style="fill:none;stroke:#303030;stroke-width:1.5;stroke-linecap:round;stroke-linejoin:round;stroke-miterlimit:10;" d="
								M639.276,445.429c-8.045,4-17.363,4.427-26.345,4.209c-1.973-0.048-3.95-0.123-5.92,0.006
								c-7.469,0.49-9.809,3.64-16.842,6.203c-7.12,2.594-9.588,4.49-14.49,4.49"/>
							
								<path style="fill:none;stroke:#303030;stroke-width:1.5;stroke-linecap:round;stroke-linejoin:round;stroke-miterlimit:10;" d="
								M570.7,442.79c4.03,3.897,5.38,10.656,4.863,16.584"/>
						</g>
						
							<path style="fill:#FFFFFF;stroke:#303030;stroke-width:1.5;stroke-linecap:round;stroke-linejoin:round;stroke-miterlimit:10;" d="
							M551.331,461.6c-0.352,2.793,1.69,5.305,4.496,5.522c4.285,0.331,12.381,0.452,29.565,0.452h45.034
							c6.064,0,9.57-0.198,10.62-2.707c0.77-1.84,0.289-4.529-0.334-6.371c-5.61,2.961-22.292,1.683-33.656,1.801
							c-5.994,0.063-20.83,0.04-34.39,0.04c-6.584,0-20.923-0.694-20.923-0.694S551.481,460.416,551.331,461.6z"/>
					</g>
				</g>
			</g>
		</g>
		<g id="Arm_00000046333057293346878120000002780636475276053140_">
			<path style="fill:#FFC4B0;" d="M491.665,166.166c2.652,0.614,6.512,0.943,6.512,0.943c-2.59-0.567-6.995-2.33-9.288-3.459
				c-2.98-1.467-6.708-4.258-6.417-6.33c0.084-1.38,1.003-2.051,2.297-1.888c-0.745-0.924-2.052-2.436-0.174-3.558
				c1.641-0.98,5.261,1.042,8.059,2.342c1.645,0.764,4,1.63,6.499,2.759c-3.006-1.893-5.175-3.517-7.63-5.963
				c-1.557-1.551-3.206-3.161-1.817-4.476c1.389-1.316,3.808,0.322,5.397,1.497c1.588,1.175,5.464,3.789,7.079,4.494
				c1.755,0.766,4.209,1.912,4.126-0.221c-0.083-2.132-3.406-4.42-3.527-6.811c-0.078-1.544,0.87-3.2,2.545-2.269
				c1.675,0.931,3.101,2.946,4.575,4.406c1.9,1.883,3.783,4.192,5.328,6.402c2.429,3.476,4.643,3.044,11.25,2.549
				c5.45-0.408,26.118-4.51,26.118-4.51s16.285-20.964,20.717-26.201c6.343-7.495,14.714-7.495,14.714-7.495l-0.095,28.614
				c0,0-13.23,14.05-17.923,18.728c-5.635,5.617-8.507,8.707-19.873,9.601c-10.492,0.825-26.451-0.386-30.693-0.601
				c-4.242-0.215-10.431-0.529-14.418-0.859c-3.987-0.331-6.98-0.68-10.191-1.567c-2.794-0.771-8.763-2.315-8.221-5.193
				C486.93,165.41,488.678,165.475,491.665,166.166z"/>
			<path id="Arm_00000117649976984307368700000007338640412486545568_" style="fill:#00826F;" d="M570.233,126.294
				c-6.135,6.592-16.028,19.447-16.028,19.447s3.701,16.708,19.807,19.384l15.41-16.154v-10.416v-22.459
				C581.306,117.546,577.52,118.465,570.233,126.294z"/>
			<path style="fill:none;stroke:#303030;stroke-width:1.5;stroke-linecap:round;stroke-linejoin:round;stroke-miterlimit:10;" d="
				M498.195,161.669c-4.789-1.399-9.184-3.504-13.379-6.195"/>
			<path style="fill:none;stroke:#303030;stroke-width:1.5;stroke-linecap:round;stroke-linejoin:round;stroke-miterlimit:10;" d="
				M505.655,160.277c1.582-0.669,3.443-0.494,4.996,0.24c1.553,0.734,2.819,1.982,3.804,3.389"/>
			<g>
				
					<path style="fill:#00826F;stroke:#303030;stroke-width:1.5;stroke-linecap:round;stroke-linejoin:round;stroke-miterlimit:10;" d="
					M577.767,160.939c1.552,2.753-1.059,4.609-4.313,5.87c-2.95,1.143-3.042,3.221-6.013,4.373
					c-2.218,0.861-9.002-1.639-14.58-8.005c-5.578-6.366-6.152-12.525-5.806-13.948c0.346-1.423,1.815-1.82,4.195-4.515
					c2.379-2.694,3.762-6.305,7.324-4.544l-1.023,2.192c0,0-1.505,3.95,5.219,11.244c7.34,7.963,13.165,9.025,13.165,9.025
					L577.767,160.939z"/>
				<path style="fill:none;stroke:#303030;stroke-width:1.5;stroke-linecap:round;stroke-linejoin:round;stroke-miterlimit:10;" d="
					M554.287,155.238c3.745,6.691,10.48,11.473,17.706,12.349"/>
				<path style="fill:none;stroke:#303030;stroke-width:1.5;stroke-linecap:round;stroke-linejoin:round;stroke-miterlimit:10;" d="
					M557.552,142.363c0,0-1.505,3.574,5.219,11.244c7.139,8.144,13.165,9.025,13.165,9.025"/>
			</g>
		</g>
		<g id="Head_00000084497808933575594660000010736777737347576730_">
			<g>
				
					<ellipse transform="matrix(0.7071 -0.7071 0.7071 0.7071 143.7204 462.7994)" style="fill:#303030;" cx="630.509" cy="57.914" rx="11.899" ry="11.899"/>
				<path style="fill:#303030;" d="M625.376,57.914c0,3.923-3.18,7.103-7.103,7.103s-7.103-3.18-7.103-7.103
					c0-3.923,3.18-7.103,7.103-7.103S625.376,53.991,625.376,57.914z"/>
				<path style="fill:#303030;" d="M647.417,60.917c0,2.962-2.401,5.362-5.362,5.362c-2.962,0-5.362-2.401-5.362-5.362
					c0-2.961,2.401-5.362,5.362-5.362C645.016,55.555,647.417,57.956,647.417,60.917z"/>
				<path style="fill:#303030;" d="M645.792,69.813c0,3.923-3.18,7.103-7.103,7.103c-3.923,0-7.103-3.18-7.103-7.103
					c0-3.923,3.18-7.103,7.103-7.103C642.612,62.71,645.792,65.89,645.792,69.813z"/>
			</g>
			<path style="fill:#00826F;" d="M612.455,61.127c2.242-4.583,10.264-5.941,18.611-1.228c9.352,5.281,10.407,12.735,7.495,15.002
				L612.455,61.127z"/>
			<g>
				<path style="fill:#303030;" d="M594.552,78.492c-1.734,11.397,10.044,22.081,22.057,23.255
					c12.013,1.174,22.66-7.176,23.781-18.649c1.121-11.474-8.377-21.844-20.304-23.691
					C607.873,57.515,597.098,61.753,594.552,78.492z"/>
			</g>
			<path style="fill:#FFC4B0;" d="M629.249,67.553c-1.625,14.314,5.435,18.136,5.435,18.136c-1.14,1.76-2.061,3.652-2.736,5.622
				c1.784-1.935,4.327-3.375,7.037-3.328c2.71,0.047,5.46,1.882,5.911,4.44c0.446,2.529-1.465,5.054-3.953,5.984
				c-2.487,0.93-5.753,0.695-8.547-1.09l-0.004-0.003c-1.337,2.352-3.912,4.584-7.411,5.884l1.493,8.796l5.922,4.308
				c0,0-11.078,31.634-38.486,26.611c-26.905-4.932,7.636-29.394,7.636-29.394l7.388-0.975l0.921-8.273
				c-6.076-0.306-19.057-7.648-13.315-23.192c0.775-3.402,2.222-6.453,4.081-9.024l0.001,0
				C607.183,63.262,618.671,62.623,629.249,67.553z"/>
			<g>
				<path style="fill:none;stroke:#303030;stroke-width:1.5;stroke-linecap:round;stroke-linejoin:round;stroke-miterlimit:10;" d="
					M641.591,92.34c-0.588-0.478-2.086-0.918-3.651-0.616c-1.564,0.302-2.923,1.414-3.475,2.843"/>
				<path style="fill:none;stroke:#303030;stroke-width:1.5;stroke-linecap:round;stroke-linejoin:round;stroke-miterlimit:10;" d="
					M638.853,93.819c-0.434-0.349-1.982-1.267-3.607-0.533"/>
			</g>
			<g>
				<path style="fill:#303030;" d="M619.391,104.296c0,0-3.709,1.126-9.536-0.026l-0.326,2.925
					C611.734,107.453,615.038,107.656,619.391,104.296z"/>
				<g>
					<g>
						<path style="fill:#FF95FB;" d="M615.688,92.018c-1.714-0.199-4.472,0.002-5.067,1.235c0,0,0.006,0.432,0.233,0.584
							c0.228,0.152,1.697,0.861,3.611,0.534c1.911-0.327,2.58-1.102,3.058-1.825C617.142,92.039,615.688,92.018,615.688,92.018z"/>
						<path style="fill:#303030;" d="M615.688,92.018c-1.714-0.199-4.472,0.002-5.067,1.235c-0.163-1.255-0.859-1.691-0.859-1.691
							s0.826-0.01,1.871-0.349c1.046-0.339,2.1-0.211,2.932,0.177C615.396,91.778,615.688,92.018,615.688,92.018z"/>
						<path style="fill:#FFFFFF;" d="M614.561,91.384c0.24,0.123,0.467,0.271,0.676,0.441c0.233,0.189,0.286,0.474,0.008,0.652
							c-0.123,0.079-0.271,0.108-0.416,0.127c-0.919,0.124-1.85-0.062-2.748-0.296c-0.21-0.055-0.436-0.124-0.562-0.301
							c-0.122-0.171-0.101-0.387,0.005-0.559c0.105-0.171,0.318-0.229,0.505-0.292c0.457-0.153,0.951-0.194,1.428-0.127
							C613.842,91.084,614.215,91.207,614.561,91.384z"/>
						
							<path style="fill:none;stroke:#303030;stroke-width:1.5;stroke-linecap:round;stroke-linejoin:round;stroke-miterlimit:10;" d="
							M618.671,92.547c-0.684-0.027-1.372-0.086-2.032-0.269c-1.251-0.346-2.278-1.246-3.627-1.263
							c-0.826-0.011-1.618,0.299-2.434,0.431c-0.86,0.139-1.751,0.076-2.583-0.182"/>
						
							<path style="fill:none;stroke:#303030;stroke-width:1.5;stroke-linecap:round;stroke-linejoin:round;stroke-miterlimit:10;" d="
							M609.415,91.544c0.719,0.218,1.177,0.765,1.203,1.516c0.004,0.114-0.004,0.412,0.041,0.516c0.077,0.18,0.17,0.284,0.5,0.437
							c1.352,0.627,4.878,0.882,6.365-1.467"/>
					</g>
					<path style="fill:#D48983;" d="M598.198,83.811c-0.005,0.482,0.399,0.878,0.904,0.884c0.505,0.006,0.919-0.38,0.925-0.863
						c0.006-0.482-0.399-0.878-0.904-0.884C598.617,82.942,598.203,83.328,598.198,83.811z"/>
					<path style="fill:#D48983;" d="M627.464,87.204c-0.006,0.482,0.399,0.878,0.904,0.884c0.505,0.006,0.919-0.38,0.925-0.863
						c0.006-0.482-0.399-0.878-0.904-0.884C627.883,86.335,627.469,86.722,627.464,87.204z"/>
					<path style="fill:#D48983;" d="M603.779,85.933c-0.006,0.482,0.399,0.878,0.904,0.884c0.505,0.006,0.919-0.38,0.925-0.863
						c0.006-0.482-0.399-0.878-0.904-0.884C604.199,85.065,603.785,85.451,603.779,85.933z"/>
					<path style="fill:#D48983;" d="M620.667,88.1c-0.006,0.482,0.399,0.878,0.904,0.884c0.505,0.006,0.919-0.38,0.925-0.863
						c0.006-0.482-0.399-0.878-0.904-0.884C621.087,87.231,620.673,87.618,620.667,88.1z"/>
					<path style="fill:#D48983;" d="M599.717,87.541c-0.006,0.482,0.399,0.878,0.904,0.884c0.505,0.006,0.919-0.38,0.925-0.863
						c0.006-0.482-0.399-0.878-0.904-0.884C600.137,86.673,599.722,87.059,599.717,87.541z"/>
					<path style="fill:#D48983;" d="M624.725,90.796c-0.006,0.482,0.399,0.878,0.904,0.884c0.505,0.006,0.919-0.38,0.925-0.863
						c0.006-0.482-0.399-0.878-0.904-0.884C625.145,89.927,624.731,90.314,624.725,90.796z"/>
					<g>
						<g>
							<path style="fill:#FFFFFF;" d="M626.474,83.612c-0.273-1.695-1.666-3.153-3.399-3.559c-1.733-0.406-4.378,0.039-5.211,2.423
								C618.141,85.043,623.594,86.628,626.474,83.612z"/>
						</g>
						<path style="fill:#303030;" d="M618.979,84.289c0.776,1.07,2.316,1.285,3.441,0.482c1.125-0.804,1.408-2.323,0.633-3.393
							c-0.776-1.07-2.316-1.285-3.441-0.481C618.487,81.7,618.204,83.22,618.979,84.289z"/>
						<polygon style="fill:#FFFFFF;" points="623.212,81.282 621.016,82.834 623.774,82.541 						"/>
						
							<path style="fill:none;stroke:#303030;stroke-width:1.5;stroke-linecap:round;stroke-linejoin:round;stroke-miterlimit:10;" d="
							M617.865,82.476c0.832-2.384,3.478-2.829,5.211-2.423c1.733,0.406,3.126,1.864,3.399,3.559"/>
						
							<path style="fill:none;stroke:#303030;stroke-width:1.5;stroke-linecap:round;stroke-linejoin:round;stroke-miterlimit:10;" d="
							M628.059,82.029c-0.411,0.558-1.152,0.851-1.833,0.725"/>
					</g>
					<g>
						<g>
							<path style="fill:#FFFFFF;" d="M609.6,81.269c-0.202-1.705-1.532-3.22-3.247-3.698c-1.715-0.478-4.376-0.145-5.308,2.202
								C601.215,82.35,606.595,84.161,609.6,81.269z"/>
						</g>
						<path style="fill:#303030;" d="M602.206,81.471c0.634,1.159,2.135,1.567,3.353,0.912c1.218-0.656,1.691-2.127,1.056-3.286
							c-0.634-1.159-2.135-1.567-3.353-0.912C602.044,78.841,601.571,80.312,602.206,81.471z"/>
						<polygon style="fill:#FFFFFF;" points="606.785,79.022 604.41,80.285 607.183,80.342 						"/>
						
							<path style="fill:none;stroke:#303030;stroke-width:1.5;stroke-linecap:round;stroke-linejoin:round;stroke-miterlimit:10;" d="
							M601.046,79.773c0.932-2.347,3.593-2.68,5.308-2.202c1.715,0.478,3.045,1.993,3.247,3.698"/>
						
							<path style="fill:none;stroke:#303030;stroke-width:1.5;stroke-linecap:round;stroke-linejoin:round;stroke-miterlimit:10;" d="
							M599.794,77.939c0.129,0.56,0.624,1.017,1.192,1.102"/>
					</g>
					
						<path style="fill:none;stroke:#303030;stroke-width:1.5;stroke-linecap:round;stroke-linejoin:round;stroke-miterlimit:10;" d="
						M614.679,76.917c-0.383,1.27-2.785,5.437-3.175,6.073c-0.531,0.866-1.432,2.12-0.862,2.973
						c0.478,0.715,1.793,0.935,2.648,0.948"/>
					
						<path style="fill:none;stroke:#303030;stroke-width:1.5;stroke-linecap:round;stroke-linejoin:round;stroke-miterlimit:10;" d="
						M610.454,73.902c-2.741-1.539-6.225-1.471-8.225-0.136"/>
					
						<path style="fill:none;stroke:#303030;stroke-width:1.5;stroke-linecap:round;stroke-linejoin:round;stroke-miterlimit:10;" d="
						M619.313,75.817c2.962-1.053,6.204-0.424,8.491,1.733"/>
				</g>
			</g>
		</g>
		<g id="Chest_00000012462005148672216620000002367431504267785653_">
			<g id="Chest_00000081644364444072080280000010528151074109903507_">
				
					<path id="Chest_00000141435501813154737580000002046463113111035306_" style="fill:#FFFFFF;stroke:#303030;stroke-width:1.5;stroke-linecap:round;stroke-linejoin:round;stroke-miterlimit:10;" d="
					M631.336,114.445c-18.002,11.507-27.243,6.277-27.927,0l-15.493,5.016c0,0-9.058,9.955-10.907,23.725
					c-1.849,13.771-3.697,52.328-3.697,52.328s6.169,8.492,28.318,9.02c22.148,0.528,39.998-3.512,39.998-3.512
					s-3.481-9.731-2.254-15.239c1.227-5.508,5.294-16.892,9.545-30.662c4.252-13.771,5.915-23.655,0-28.995
					C643.004,120.786,631.336,114.445,631.336,114.445z"/>
				<path style="fill:#00826F;" d="M569.966,197.152c19.588,14.565,59.892,12.077,75.05,7.229
					c-0.054-0.352-3.17-11.336-3.622-14.219c-1.312-8.404,1.9-11.405,8.63-27.65c5.636-13.604,9.012-31.614-1.585-38.627
					c-8.671-5.738-15.087-8.653-15.087-8.653c-7.343,8.617-22.071,13.742-30.102,15.259c-2.763-5.115-3.72-9.236-0.978-16.049
					c0,0-7.442,0.976-13.398,1.756c-5.085,3.075-11.559,10.73-15.562,26.343c-3.518,13.721-0.722,15.36-1.701,35.157
					C571.16,186.869,570.547,192.71,569.966,197.152z"/>
				<path style="fill:none;stroke:#303030;stroke-width:1.5;stroke-linecap:round;stroke-linejoin:round;stroke-miterlimit:10;" d="
					M586.663,204.855c3.284-22.171,3.598-61.794,16.591-74.367"/>
				<path style="fill:none;stroke:#303030;stroke-width:1.5;stroke-linecap:round;stroke-linejoin:round;stroke-miterlimit:10;" d="
					M644.828,204.454c-15.154,4.847-55.106,7.387-74.688-7.179"/>
				<path style="fill:none;stroke:#303030;stroke-width:1.5;stroke-linecap:round;stroke-linejoin:round;stroke-miterlimit:10;" d="
					M646.397,211.229c-15.681,5.016-57.025,7.645-77.29-7.429"/>
				<path style="fill:none;stroke:#303030;stroke-width:1.5;stroke-linecap:round;stroke-linejoin:round;stroke-miterlimit:10;" d="
					M568.901,204.648c0.781-5.657,1.957-11.734,2.711-26.955c0.982-19.794-3.605-24.29,4.855-43.395"/>
			</g>
			<g id="Neck_00000167371790424505315720000008230515002064411546_">
				<g>
					
						<path style="fill:#00826F;stroke:#303030;stroke-width:1.5;stroke-linecap:round;stroke-linejoin:round;stroke-miterlimit:10;" d="
						M626.851,111.218c-3.929,9.152-17.124,17.207-23.598,19.27c10.921-0.258,11.301-2.554,16.628-1.885
						c2.852,0.358,5.85,2.691,5.85,2.691s10.665-7.788,12.403-13.622c-1.894-1.159-5.376-3.228-5.376-3.228
						S630.833,110.672,626.851,111.218z"/>
					
						<path style="fill:none;stroke:#303030;stroke-width:1.5;stroke-linecap:round;stroke-linejoin:round;stroke-miterlimit:10;" d="
						M632.758,114.445c-1.18,4.125-6.686,8.843-9.624,10.032"/>
				</g>
				
					<path style="fill:#00826F;stroke:#303030;stroke-width:1.5;stroke-linecap:round;stroke-linejoin:round;stroke-miterlimit:10;" d="
					M608.426,109.926c-0.167,1.462-0.287,3.361-0.287,3.361c-1.428,2.771-6.646,8.682-4.886,17.201
					c-4.963-3.737-4.88-8.903-6.363-9.767c-1.482-0.864-5.041,0-5.041,0l4.523-5.491l5.293-2.02L608.426,109.926z"/>
			</g>
		</g>
		<g id="Gear_00000032626155807761845060000018227452736445342881_">
			
				<path style="fill:#FF95FB;stroke:#303030;stroke-width:1.5;stroke-linecap:round;stroke-linejoin:round;stroke-miterlimit:10;" d="
				M557.169,223.592l-16.127-2.238c-0.875-5.821-2.407-11.406-4.495-16.729l12.855-10.005c1.175-0.921,1.495-2.558,0.752-3.846
				l-6.423-11.124c-0.743-1.288-2.323-1.834-3.705-1.27l-15.112,6.131c-3.611-4.523-7.711-8.623-12.234-12.234l6.131-15.111
				c0.564-1.382,0.019-2.962-1.269-3.705l-11.124-6.423c-1.288-0.743-2.924-0.423-3.846,0.752l-10.005,12.845
				c-5.322-2.078-10.917-3.611-16.729-4.485l-2.238-16.127c-0.207-1.476-1.467-2.567-2.953-2.567h-12.845
				c-1.495,0-2.755,1.091-2.953,2.567l-2.247,16.127c-5.811,0.874-11.406,2.407-16.72,4.485l-10.015-12.845
				c-0.912-1.175-2.548-1.495-3.846-0.752l-11.124,6.423c-1.288,0.743-1.824,2.323-1.269,3.705l6.131,15.111
				c-4.514,3.611-8.623,7.711-12.234,12.234l-15.112-6.131c-1.373-0.564-2.953-0.019-3.696,1.27l-6.423,11.124
				c-0.752,1.288-0.433,2.924,0.743,3.846l12.855,10.005c-2.088,5.322-3.62,10.908-4.486,16.729l-16.127,2.238
				c-1.476,0.207-2.577,1.467-2.577,2.953v12.845c0,1.486,1.1,2.746,2.577,2.953l16.127,2.248
				c0.865,5.811,2.398,11.406,4.486,16.719l-12.855,10.015c-1.175,0.912-1.495,2.548-0.743,3.837l6.423,11.124
				c0.743,1.288,2.323,1.834,3.696,1.279l15.112-6.131c3.611,4.514,7.72,8.623,12.234,12.234l-6.131,15.112
				c-0.555,1.373-0.019,2.953,1.269,3.696l11.124,6.423c1.298,0.743,2.934,0.423,3.846-0.743l10.015-12.855
				c5.313,2.088,10.908,3.62,16.72,4.486l2.247,16.127c0.197,1.476,1.457,2.577,2.953,2.577h12.845c1.486,0,2.746-1.1,2.953-2.577
				l2.238-16.127c5.812-0.865,11.407-2.398,16.729-4.486l10.005,12.855c0.922,1.166,2.558,1.486,3.846,0.743l11.124-6.423
				c1.288-0.743,1.834-2.323,1.269-3.696l-6.131-15.112c4.523-3.611,8.623-7.72,12.234-12.234l15.112,6.131
				c1.382,0.555,2.962,0.009,3.705-1.279l6.423-11.124c0.743-1.288,0.423-2.924-0.752-3.837l-12.855-10.015
				c2.088-5.313,3.62-10.908,4.495-16.719l16.127-2.248c1.467-0.207,2.567-1.467,2.567-2.953v-12.845
				C559.737,225.059,558.636,223.799,557.169,223.592z M464.225,284.038c-28.211,0-51.071-22.86-51.071-51.071
				c0-28.201,22.86-51.071,51.071-51.071c28.201,0,51.071,22.869,51.071,51.071C515.296,261.178,492.426,284.038,464.225,284.038z"
				/>
			
				<circle style="fill:#FF95FB;stroke:#303030;stroke-width:1.5;stroke-linecap:round;stroke-linejoin:round;stroke-miterlimit:10;" cx="464.222" cy="232.97" r="26.788"/>
			
				<circle style="fill:none;stroke:#F55571;stroke-width:1.5;stroke-linecap:round;stroke-linejoin:round;stroke-miterlimit:10;" cx="464.222" cy="232.97" r="32.595"/>
		</g>
		<g id="Arm_00000018225135188388434610000012578788630251658637_">
			<path style="fill:#FFC4B0;" d="M525.738,193.986c1.219-1.968,6.076-0.977,8.872-0.409c1.107,0.225,3.116,0.41,5.044,0.497
				c-2.478-0.381-5.635-1.136-7.431-2.014c-2.089-1.021-4.292-2.069-3.35-3.861c0.941-1.792,3.924-0.98,5.917-0.346
				c2.334,0.743,4.905,1.383,7.537,1.314c2.631-0.069,4.358-0.943,4.34-2.016c-0.018-1.072-0.74-1.485-1.997-2.234
				c-1.722-1.026-2.272-1.267-3.424-2.268c-1.152-1.001-1.668-2.253-1.551-3.365c0.347-3.299,3.176-1.36,4.88-0.626
				c2.68,1.154,4.93,1.881,8.556,3.798c1.304,0.689,2.923,2.009,5.266,2.846c1.037,0.37,4.052,1.083,6.3,0.478
				c4.08-1.097,15.01-4.539,19.633-6.262c4.181-1.558,8.359-3.124,12.533-4.7c11.377-14.472,18.949-23.856,25.872-32.591
				c6.923-8.735,13.508-11.938,20.07-9.762l-3.611,34.902c0,0-9.284,10.768-19.12,21.469c-4.11,4.471-7.258,8.825-19.418,11.369
				c-5.276,1.104-33.648,3.775-37.992,4.775c-6.965,1.604-4.725,1.402-8.831,2.434c-4.106,1.032-7.223,1.705-10.742,1.915
				c-3.062,0.182-9.778,0.7-10.009-2.39c-0.107-1.429,1.778-2.19,5.006-2.519c0.53-0.054,1.089-0.119,1.647-0.189
				c-2.353,0.023-4.857-0.203-6.289-0.495c-3.62-0.74-7.614-1.655-7.889-3.851c-0.216-1.727,0.394-2.121,1.573-2.396
				C526.179,197.043,524.519,195.954,525.738,193.986z"/>
			
				<path style="fill:#00826F;stroke:#303030;stroke-width:1.5;stroke-linecap:round;stroke-linejoin:round;stroke-miterlimit:10;" d="
				M642.572,165.546l-11.012,13.397c0,0-8.575,3.306-16.129-3.456c-7.555-6.762-8.978-14.188-8.978-14.188
				s9.586-12.993,17.168-22.214c6.892-8.381,12.464-16.572,22.777-15.757"/>
			<path style="fill:none;stroke:#303030;stroke-width:1.5;stroke-linecap:round;stroke-linejoin:round;stroke-miterlimit:10;" d="
				M543.134,199.586c-5.274,0.236-10.883-0.835-16.005-2.096"/>
			<path style="fill:none;stroke:#303030;stroke-width:1.5;stroke-linecap:round;stroke-linejoin:round;stroke-miterlimit:10;" d="
				M543.445,204.692c-1.944,0.064-4.444,0.225-7.224-0.09c-4.526-0.512-7.646-1.525-9.311-3.113
				c-1.341-1.278-1.787-3.184,0.219-3.999c-1.621-0.866-2.86-2.45-1.136-4.09c1.724-1.64,5.364-0.012,10.388-0.007"/>
			<path style="fill:none;stroke:#303030;stroke-width:1.5;stroke-linecap:round;stroke-linejoin:round;stroke-miterlimit:10;" d="
				M543.56,194.455c-2.798-0.121-6.308-0.617-10.585-2.065c-4.277-1.448-4.935-2.425-4.732-3.713c0.233-1.48,1.847-2.443,6.638-1.09
				"/>
			<g>
				
					<path style="fill:#00826F;stroke:#303030;stroke-width:1.5;stroke-linecap:round;stroke-linejoin:round;stroke-miterlimit:10;" d="
					M633.308,176.878c2.035,2.762-0.534,5.106-3.873,6.893c-3.028,1.62-2.853,3.871-5.903,5.505
					c-2.276,1.219-9.916-0.58-16.765-6.705c-6.849-6.125-7.967-10.893-7.782-12.471c0.185-1.578,1.571-2.89,3.78-6.106
					c2.209-3.217,0.758-9.055,6.295-7.271l-0.764,2.411c0,0-1.199,4.362,7.888,11.821c9.088,7.459,15.375,7.99,15.375,7.99
					L633.308,176.878z"/>
				<path style="fill:none;stroke:#303030;stroke-width:1.5;stroke-linecap:round;stroke-linejoin:round;stroke-miterlimit:10;" d="
					M607.256,173.828c4.917,6.717,12.804,10.981,20.706,10.974"/>
				<path style="fill:none;stroke:#303030;stroke-width:1.5;stroke-linecap:round;stroke-linejoin:round;stroke-miterlimit:10;" d="
					M608.296,159.132c0,0-1.199,4.362,7.888,11.821c9.088,7.459,15.375,7.99,15.375,7.99"/>
			</g>
		</g>
	</g>
</g>
</svg>
